<svg xmlns="http://www.w3.org/2000/svg" version="1.1">  
  <path  d="M 150.791412 196.667679  L 152.258087 195.934357  L 152.991440 195.751038  L 153.541428 195.934357  L 153.724777 196.667679  L 154.641434 198.317703  L 163.624817 228.751205  L 176.824875 294.568268  L 184.524933 356.351898  L 194.241669 478.635864  L 200.108353 547.752991  L 201.208359 556.553040  L 201.941711 560.036377 "  stroke="rgb(25,25,25)" stroke-width="4" fill="none" />  
  <path  d="M 179.208237 186.217636  L 180.858246 186.034302  L 182.324921 186.034302  L 184.708267 186.034302  L 188.741623 186.217636  L 194.424988 186.217636  L 202.125015 186.400986  L 212.391754 186.034302  L 629.477356 186.400986  L 652.944153 185.117615  L 653.677490 184.934296  L 653.860779 184.934296  L 653.860779 185.117615  L 653.677490 185.117615  L 653.677490 185.300949  L 653.494202 185.300949  L 653.494202 185.484299  L 653.310791 185.484299  L 653.310791 185.667633  L 653.127502 185.667633  L 653.127502 185.850967  L 652.944153 186.217636  L 653.127502 190.067657  L 653.677490 196.484360  L 655.144226 220.317780  L 656.794189 261.018036  L 666.694214 367.351959  L 681.727600 548.852966  L 683.377625 564.253052  L 683.560974 566.636353  L 683.377625 567.369751  L 682.827637 567.186401  L 680.994324 565.169678 "  stroke="rgb(25,25,25)" stroke-width="4" fill="none" />  
  <path  d="M 298.375580 575.069763  L 296.175537 573.786438  L 293.975555 572.319702  L 288.658813 570.303101  L 281.508789 569.019714  L 269.592041 568.103088  L 258.775391 566.453064  L 247.408600 564.803040  L 245.575287 564.436340  L 233.658524 564.253052  L 231.825211 564.619690  L 231.275208 564.986450  L 232.375198 565.353088  L 233.841904 565.903015  L 236.041855 566.636353  L 239.341888 567.003174  L 244.475250 567.369751  L 250.708633 567.553040  L 604.910522 566.086426  L 623.793945 564.619690  L 639.744080 562.786377  L 652.027466 558.203064 "  stroke="rgb(25,25,25)" stroke-width="4" fill="none" />  
  <path  d="M 425.242889 283.751495  L 425.609558 284.484833  L 425.792908 285.768158  L 425.976227 288.701508  L 426.342896 292.551544  L 427.626251 306.301666  L 427.992920 315.284973  L 429.459625 323.535034  L 430.009583 326.468384  L 430.376251 330.868439  L 430.192902 331.968414  L 429.826294 332.335083  L 429.642944 332.151794  L 429.092926 331.601715  L 426.892914 329.218445 "  stroke="rgb(25,25,25)" stroke-width="4" fill="none" />  
  <path  d="M 427.442932 285.218201  L 429.826294 284.668152  L 436.609650 284.118164  L 460.443146 285.218201  L 470.709808 285.584839  L 478.043182 286.318176  L 482.259888 287.234833  L 482.993225 287.784851  L 483.176575 288.151520  L 483.176575 288.701508  L 482.993225 289.618225  L 483.359894 298.784943  L 484.459900 307.768280  L 486.293274 314.735016  L 488.859924 320.968384  L 489.409912 323.168365  L 489.226593 323.535034  L 488.859924 323.535034  L 486.476593 324.268402  L 467.409821 327.751740  L 454.759735 329.401733  L 442.109711 332.151794  L 437.159637 332.885132  L 432.392914 333.435120  L 427.992920 333.068451  L 422.492859 328.851746 "  stroke="rgb(25,25,25)" stroke-width="4" fill="none" />  
  <path  d="M 458.243103 261.568024  L 459.343079 261.568024  L 460.076447 261.751373  L 460.443146 262.668030  L 460.443146 263.218048  L 458.793121 266.151398  L 455.859741 269.084778  L 451.459717 272.384766  L 443.209656 277.884827  L 435.692963 283.018158  L 432.942993 285.034851  L 430.926300 287.234833  L 430.009583 287.784851 "  stroke="rgb(25,25,25)" stroke-width="4" fill="none" />  
  <path  d="M 466.493134 259.918060  L 466.859772 260.468048  L 467.226440 261.018036  L 468.876465 261.751373  L 469.976471 262.484741  L 473.093170 263.951447  L 478.776550 265.234741  L 494.543243 265.601379  L 498.393311 265.784729  L 501.326660 265.601379  L 503.343292 265.784729  L 508.660034 266.701416  L 509.393372 266.884766  L 509.576752 267.068085  L 509.759979 267.068085  L 509.576752 267.068085  L 509.393372 267.251404  L 509.393372 267.068085  L 509.210022 267.068085  L 509.026703 267.068085  L 509.026703 267.251404  L 508.843262 267.251404  L 507.560059 267.984741  L 503.893311 270.734741  L 495.459991 276.051483  L 491.609955 278.068115  L 487.026550 282.468170  L 486.293274 281.184814 "  stroke="rgb(25,25,25)" stroke-width="4" fill="none" />  
  <path  d="M 509.210022 264.501434  L 508.843262 265.968048  L 508.660034 267.434723  L 508.476746 270.001434  L 509.026703 275.868134  L 509.943359 281.368134  L 510.310059 283.934845  L 511.776672 289.434906  L 512.876648 291.634888  L 513.426697 293.651550  L 513.610107 295.301544  L 513.610107 297.134949 "  stroke="rgb(25,25,25)" stroke-width="4" fill="none" />  
  <path  d="M 513.426697 300.251587  L 513.243408 300.618256  L 513.243408 301.351593  L 513.060059 302.451569  L 512.693420 303.368286  L 512.510010 304.651642  L 510.859955 307.584961  L 508.660034 310.334961  L 490.509918 324.085022  L 481.159882 329.585114  L 468.143158 330.501770 "  stroke="rgb(25,25,25)" stroke-width="4" fill="none" />  
  <path  d="M 289.758850 427.668945  L 290.308838 428.768951  L 289.758850 430.235687  L 289.208862 432.435608  L 288.658813 434.818970  L 288.108826 438.119019  L 284.625488 449.669098  L 282.975464 457.735840  L 281.692169 461.219147  L 280.958801 464.335815  L 277.658813 473.869202  L 277.292084 474.602539  L 277.108826 474.785889  L 277.292084 474.785889  L 277.292084 473.869202  L 277.292084 473.319244  L 277.292084 473.135864  L 277.292084 472.952606  L 277.475403 472.952606  L 277.658813 473.135864  L 277.842102 473.135864  L 280.408783 473.135864  L 287.192169 474.052582  L 294.158844 475.702515  L 296.725555 476.069275  L 298.192230 476.069275  L 298.925537 476.252563  L 299.108887 476.252563  L 299.108887 476.069275  L 298.925537 476.069275  L 298.925537 476.252563  L 298.742218 476.252563  L 298.558899 476.252563  L 298.375580 476.252563  L 298.375580 476.069275  L 298.375580 475.885895  L 298.192230 475.519226  L 298.008911 475.152557  L 298.008911 474.052582  L 297.825531 472.769196  L 298.558899 468.919250  L 300.758911 462.685791  L 304.608948 455.719147  L 306.258911 450.952423  L 306.442261 449.669098  L 306.442261 448.385742  L 307.542297 443.069000  L 307.542297 442.519043  L 307.908936 442.152374  L 307.725616 441.785706  L 307.358948 441.602325  L 306.625580 441.235718  L 305.342255 440.685669  L 303.142273 438.668976 "  stroke="rgb(25,25,25)" stroke-width="4" fill="none" />  
  <path  d="M 294.525543 426.568939  L 294.525543 426.752258  L 294.525543 427.119049  L 294.342194 427.302277  L 294.158844 427.668945  L 293.975555 427.852234  L 293.792206 428.218994  L 293.242188 427.852234  L 292.692169 427.852234  L 291.958862 428.035614  L 291.042145 428.035614  L 290.125519 427.485657  L 289.208862 427.119049  L 288.475494 426.202301  L 287.192169 424.918915  L 286.458801 423.452271  L 284.992126 418.502228  L 286.642120 409.518799  L 289.758850 402.918854  L 293.608887 398.152100  L 298.008911 394.118744  L 305.525604 388.985382  L 312.492279 386.235443  L 316.525665 385.685364  L 320.558990 385.685364  L 325.142365 386.785400  L 340.542450 393.568756  L 347.875824 399.435455  L 351.725861 405.302124  L 352.642517 408.052155  L 352.825836 410.435516  L 352.642517 412.635559  L 349.159149 420.335541  L 341.275787 428.035614  L 336.875732 431.152283  L 333.575745 432.252380  L 331.559052 432.618988  L 325.142365 431.885620  L 325.142365 431.702332  L 325.142365 431.335663  L 325.325684 431.518951  L 325.692383 431.152283  L 325.509033 431.152283 "  stroke="rgb(25,25,25)" stroke-width="4" fill="none" />  
  <path  d="M 306.808929 432.252380  L 307.175629 432.252380  L 307.542297 432.069000  L 307.908936 432.069000  L 308.458954 432.252380  L 308.825623 432.435608  L 309.192291 432.802277  L 309.375580 433.168945  L 309.558929 433.719025  L 309.925629 434.085632  L 310.108948 434.635681  L 309.742249 435.002350  L 309.375580 435.552307  L 308.458954 436.102325  L 307.175629 436.468994 "  stroke="rgb(25,25,25)" stroke-width="4" fill="none" />  
  <path  d="M 313.775665 395.585449  L 314.142273 395.218781  L 313.958954 394.852081  L 313.775665 394.668793  L 313.408966 394.668793  L 312.858948 394.668793  L 311.758972 395.035461  L 307.908936 397.968781  L 305.342255 401.085449  L 303.508911 404.018799  L 302.958923 406.218872  L 302.775604 408.602173  L 302.958923 411.352203  L 303.508911 413.918945  L 304.242249 415.935638  L 305.342255 417.585541  L 307.358948 419.052277  L 310.658966 420.335541  L 312.858948 420.885590  L 314.508972 420.885590  L 319.275665 419.785583  L 321.658997 418.685516  L 323.492340 417.402222  L 327.525726 413.368896  L 329.175720 410.985535  L 330.275757 408.602173  L 330.642426 405.668793  L 331.375732 402.552155  L 331.742401 399.618805  L 331.009064 397.602112  L 329.909058 395.952118  L 328.075684 394.302124  L 325.692383 393.018768  L 321.658997 392.468781  L 316.892334 394.118744  L 311.392273 397.052155  L 306.442261 400.352112  L 300.208862 399.985504 "  stroke="rgb(25,25,25)" stroke-width="4" fill="none" />  
  <path  d="M 303.325562 483.219299  L 304.242249 482.852539  L 304.975555 482.485962  L 305.708923 482.302582  L 305.892273 482.485962  L 306.075592 482.669250  L 306.258911 483.219299  L 306.625580 483.219299  L 306.442261 484.319275  L 306.808929 485.419281  L 306.808929 486.702637  L 306.258911 490.919281  L 305.708923 492.752686  L 304.792236 494.219330  L 304.608948 494.585999  L 304.242249 494.769318  L 304.242249 495.135986  L 304.242249 494.952606  L 304.425598 494.769318  L 304.425598 494.402710  L 304.425598 494.035950  L 304.242249 493.669281  L 303.692230 493.485992  L 302.775604 493.119324 "  stroke="rgb(25,25,25)" stroke-width="4" fill="none" />  
  <path  d="M 293.975555 518.419434  L 294.892212 518.236145  L 295.258881 518.052795  L 295.808838 518.236145  L 296.358887 518.236145  L 296.542206 518.419434  L 296.725555 518.602783  L 296.725555 519.336121  L 296.908875 519.886169  L 296.908875 521.719482  L 296.175537 523.002808  L 295.258881 524.469482  L 293.425537 526.119507  L 291.408875 528.136169  L 289.025513 530.519531  L 287.192169 532.352844 "  stroke="rgb(25,25,25)" stroke-width="4" fill="none" />  
  <path  d="M 285.542145 549.952942  L 286.275543 550.319702  L 286.458801 550.686279  L 286.642120 551.236328  L 286.825531 551.602966  L 286.825531 552.153015  L 287.008820 552.702942  L 286.642120 553.069641  L 286.458801 553.803040  L 284.808838 556.553040  L 284.075470 558.019653  L 282.975464 560.036377  L 281.875427 561.686401  L 280.958801 563.153015 "  stroke="rgb(25,25,25)" stroke-width="4" fill="none" />  
  <path  d="M 274.175415 578.369812  L 274.725403 579.286499  L 274.908752 580.386475  L 275.092133 581.486450  L 275.275452 582.769775  L 274.908752 585.519836  L 273.992096 588.453186  L 271.792084 591.753174  L 270.142059 593.953186  L 268.125366 596.153198  L 265.925415 597.436584 "  stroke="rgb(25,25,25)" stroke-width="4" fill="none" />  
  <path  d="M 252.358658 618.153320  L 252.541992 618.703369  L 252.725327 619.070007  L 253.091965 619.436646  L 253.458633 620.169983  L 253.458633 620.720032  L 253.641968 621.636658  L 253.275299 623.286682  L 251.991959 626.036682  L 250.525299 628.053345  L 248.691940 629.886780  L 247.041931 632.086731  L 245.575287 633.920044  L 244.475250 635.386780 "  stroke="rgb(25,25,25)" stroke-width="4" fill="none" />  
  <path  d="M 242.641907 646.570190  L 242.091904 647.486877  L 241.541916 648.403503  L 240.991928 649.320190  L 240.258591 650.236816  L 239.708557 651.153503  L 238.791916 652.620178  L 237.141891 654.086914  L 234.025223 654.453552 "  stroke="rgb(25,25,25)" stroke-width="4" fill="none" />  
  <path  d="M 166.374832 688.920349  L 168.208176 691.120422  L 170.774857 698.453735  L 172.058212 704.503845  L 172.608200 710.737183  L 172.791534 725.953918  L 173.524887 729.437256  L 173.524887 735.487305  L 173.341553 735.487305  L 172.974869 735.120605  L 172.241516 726.870544  L 172.058212 699.187134  L 173.158203 694.053772  L 174.808212 689.287048  L 177.924911 684.337036  L 181.958252 681.036987  L 186.724945 679.386963  L 190.391647 678.837036  L 193.691650 679.937012  L 196.074997 681.770325  L 197.541656 684.337036  L 197.725006 687.087036  L 196.808334 690.203674  L 194.241669 693.320435  L 191.124969 696.253784  L 183.608276 701.020447  L 180.858246 702.120422  L 179.024918 702.670471  L 178.291565 702.487183  L 178.108246 701.203796  L 178.291565 698.453735 "  stroke="rgb(25,25,25)" stroke-width="4" fill="none" />  
  <path  d="M 199.558350 692.587036  L 198.641678 694.603760  L 198.091675 696.070374  L 197.541656 697.537109  L 197.541656 698.637146  L 197.725006 699.553772  L 197.908340 699.737061  L 198.458344 699.370422  L 198.641678 698.637146  L 199.925018 696.437073  L 200.108353 695.337158  L 200.475006 694.237061  L 200.841690 693.320435  L 201.391693 692.587036  L 202.858368 691.120422  L 203.591705 690.203674  L 205.425049 689.103760  L 206.158401 688.370422  L 209.091736 686.903687  L 211.108429 686.170410  L 213.308426 685.620361  L 215.691788 685.070374  L 218.258453 684.703674 "  stroke="rgb(25,25,25)" stroke-width="4" fill="none" />  
  <path  d="M 232.008530 681.953735  L 230.725174 681.770325  L 229.808533 682.137024  L 229.075165 682.137024  L 228.525162 682.320312  L 228.341827 682.687012  L 228.158508 683.053650  L 228.158508 683.786987  L 228.341827 684.703674  L 228.891800 685.803711  L 229.625198 686.903687  L 230.908493 688.370422  L 231.825211 690.203674  L 232.925186 691.853699  L 233.658524 693.320435  L 233.291855 694.970398  L 232.558533 696.620422  L 231.275208 698.270447  L 229.625198 699.553772  L 227.791840 700.470459  L 225.775146 701.020447  L 221.191788 701.387085  L 219.908478 700.837158  L 219.175110 700.287109  L 218.808456 699.737061  L 218.625122 698.453735  L 219.358444 696.620422  L 221.008453 693.687134 "  stroke="rgb(25,25,25)" stroke-width="4" fill="none" />  
  <path  d="M 199.191681 694.787109  L 199.191681 694.970398  L 199.191681 694.970398  L 199.375015 695.153748  L 199.741669 695.520447  L 200.108353 695.703796  L 200.658356 696.070374  L 201.025024 696.437073  L 201.025024 696.987122  L 200.841690 697.720398  L 200.475006 698.453735  L 200.475006 699.003723  L 199.925018 698.637146  L 199.741669 699.370422  L 199.741669 699.920471  L 200.108353 700.470459  L 200.841690 700.837158  L 203.775040 701.753784  L 211.108429 700.837158  L 213.125046 700.103760  L 214.225098 699.553772  L 214.958420 699.187134  L 215.141724 698.820435  L 215.325119 698.270447  L 214.958420 697.537109  L 214.408432 696.437073  L 210.008408 694.053772  L 207.808395 693.503723  L 205.241714 693.320435  L 202.675034 693.687134  L 200.658356 693.870422  L 197.541656 691.487061 "  stroke="rgb(25,25,25)" stroke-width="4" fill="none" />  
  <path  d="M 269.592041 658.120239  L 269.958710 658.120239  L 270.325378 658.303528  L 270.692078 658.303528  L 271.425415 658.303528  L 272.342072 658.486877  L 273.992096 658.486877  L 281.508789 659.953552  L 288.108826 660.503601  L 297.458862 658.486877  L 300.758911 657.386902  L 302.775604 656.286865  L 303.692230 655.553528  L 303.692230 655.003540  L 302.775604 654.820190  L 300.208862 654.270142 "  stroke="rgb(25,25,25)" stroke-width="4" fill="none" />  
  <path  d="M 271.058746 659.220215  L 271.425415 659.403503  L 271.975403 660.503601  L 273.625427 663.620300  L 275.275452 672.420288  L 276.008759 683.603699  L 276.742096 691.303772  L 277.475403 694.420349  L 278.025452 700.470459  L 278.392120 703.037109  L 278.942108 704.870544  L 279.492096 707.620483  L 279.858795 708.170471  L 280.042145 708.353821  L 280.408783 708.537109  L 281.142120 708.537109  L 285.725494 707.253784  L 293.608887 704.137146  L 299.292236 702.303772  L 304.792236 700.653748  L 307.725616 698.820435 "  stroke="rgb(25,25,25)" stroke-width="4" fill="none" />  
  <path  d="M 306.258911 675.903625  L 306.625580 675.903625  L 306.992249 675.536987  L 307.542297 675.536987  L 307.908936 675.536987  L 308.458954 675.536987  L 309.192291 675.903625  L 310.292297 676.636963  L 314.142273 680.120361  L 316.892334 682.687012  L 321.475708 686.537109  L 323.675690 688.553650  L 324.775696 689.287048  L 325.325684 689.470398  L 325.509033 689.287048  L 325.142365 688.187012 "  stroke="rgb(25,25,25)" stroke-width="4" fill="none" />  
  <path  d="M 323.492340 672.786987  L 322.759033 673.886963  L 322.209015 674.987000  L 319.275665 678.653687  L 314.142273 683.053650  L 308.825623 687.820374  L 306.075592 691.120422  L 304.058929 694.603760  L 303.875580 696.803772  L 304.058929 696.253784 "  stroke="rgb(25,25,25)" stroke-width="4" fill="none" />  
  <path  d="M 353.375885 683.603699  L 352.642517 684.703674  L 351.542511 686.353699  L 348.609192 690.570374  L 342.925781 697.170410  L 339.809143 700.287109  L 337.242401 703.037109  L 334.492401 704.870544 "  stroke="rgb(25,25,25)" stroke-width="4" fill="none" />  
  <path  d="M 375.009277 674.436951  L 375.375977 674.803650  L 375.559296 675.536987  L 376.292664 676.270325  L 376.842651 677.187012  L 378.859344 679.386963  L 382.526001 683.970337  L 383.442688 684.887085  L 384.359344 686.170410  L 385.459381 687.087036  L 386.926025 687.270325  L 387.659363 685.987061 "  stroke="rgb(25,25,25)" stroke-width="4" fill="none" />  
  <path  d="M 399.392792 679.020264  L 397.742767 680.487000  L 395.542755 682.503723  L 379.775970 700.653748  L 376.109314 705.420471  L 372.259277 708.720520  L 367.309296 707.620483 "  stroke="rgb(25,25,25)" stroke-width="4" fill="none" />  
  <path  d="M 423.226196 690.570374  L 423.592926 690.753723  L 423.959564 691.120422  L 423.959564 691.670410  L 423.592926 692.220398  L 423.226196 692.953735  L 421.392914 694.787109  L 420.292908 696.437073  L 418.826202 698.087097  L 417.176208 698.820435  L 416.259521 700.103760  L 415.709503 701.387085  L 415.526184 701.753784 "  stroke="rgb(25,25,25)" stroke-width="4" fill="none" />  
  <path  d="M 440.459686 673.153625  L 441.743042 672.603577  L 443.209656 672.053650  L 444.859680 671.686951  L 446.693024 671.320312  L 452.009705 671.503601  L 453.843048 672.053650  L 458.426453 672.786987  L 459.709747 673.153625  L 462.093109 674.436951  L 463.009766 674.987000  L 463.009766 675.536987  L 462.643097 676.453674  L 461.543091 677.553650  L 456.226410 681.036987  L 445.776367 687.087036  L 443.393005 688.737061  L 442.659668 689.837036  L 442.292999 690.203674  L 442.292999 690.570374  L 442.476318 690.753723  L 443.026337 691.120422  L 444.309662 691.853699  L 452.193054 692.037109  L 465.759796 688.187012  L 470.893158 686.537109  L 473.826508 685.070374  L 474.926514 682.137024 "  stroke="rgb(25,25,25)" stroke-width="4" fill="none" />  
  <path  d="M 479.876526 649.870239  L 480.059875 649.870239  L 480.059875 650.053528  L 480.426544 650.420166  L 480.793213 650.603516  L 481.526550 651.153503  L 482.443237 651.520142  L 488.493225 652.620178  L 493.809967 652.986877  L 497.109985 652.620178  L 502.793335 652.620178  L 502.610016 652.803528  L 502.426666 652.620178  L 502.059998 653.720215  L 502.243347 659.403503  L 504.993317 675.353699  L 506.276672 687.270325  L 506.826721 691.303772  L 507.010010 692.770386  L 506.643341 694.787109  L 506.093384 695.153748  L 504.443359 695.153748  L 494.359924 696.620422  L 484.459900 697.537109  L 472.543152 696.620422 "  stroke="rgb(25,25,25)" stroke-width="4" fill="none" />  
  <path  d="M 559.076965 309.234985  L 559.626953 309.601654  L 559.993591 309.784973  L 560.360291 310.334961  L 560.726929 310.701630  L 561.093628 311.434998  L 561.460388 311.984985  L 562.193604 312.351654  L 562.743591 313.268311  L 563.660339 313.634979  L 564.393677 314.185028  L 565.127075 314.551697  L 566.410339 314.735016  L 570.627136 314.551697  L 573.743774 314.185028  L 576.127075 314.001648  L 577.227112 314.185028 "  stroke="rgb(25,25,25)" stroke-width="4" fill="none" />  
  <path  d="M 593.910522 322.251709  L 594.460510 321.885040  L 595.377136 321.701721  L 595.927124 321.518372  L 597.760498 321.518372  L 601.610535 322.435028  L 602.527161 322.801697  L 603.260559 323.351746  L 604.543884 324.085022  L 605.643921 324.818359  L 607.110535 325.368347 "  stroke="rgb(25,25,25)" stroke-width="4" fill="none" />  
  <path  d="M 630.760681 334.901733  L 631.494080 334.901733  L 632.410706 334.901733  L 632.777405 334.718445  L 634.794067 334.718445  L 636.627380 335.085114  L 639.744080 335.451782  L 643.227417 335.635101  L 646.710754 335.635101 "  stroke="rgb(25,25,25)" stroke-width="4" fill="none" />  
  <path  d="M 668.344177 344.251831  L 668.710876 344.435150  L 669.077576 344.435150  L 670.727539 344.435150  L 672.010925 344.618500  L 674.210876 344.618500  L 677.144226 344.985199  L 680.260925 345.168488  L 683.194336 345.351807  L 684.844360 344.985199 "  stroke="rgb(25,25,25)" stroke-width="4" fill="none" />  
  <path  d="M 696.027710 354.518524  L 695.661072 355.068573  L 695.844360 355.068573  L 696.210999 355.435242  L 696.577698 355.618561  L 697.677734 356.351898  L 698.411072 356.718597  L 699.144409 357.268585  L 700.427734 358.001923  L 702.261108 358.735291  L 704.644409 359.285278  L 707.394409 359.285278  L 709.777771 357.635254  L 709.411133 349.935150 "  stroke="rgb(25,25,25)" stroke-width="4" fill="none" />  
  <path  d="M 693.461060 396.135406  L 693.827698 397.602112  L 693.827698 400.352112  L 693.827698 404.568848  L 693.644409 410.435516  L 692.911011 430.418976  L 693.094360 435.369019  L 692.727722 436.652374  L 693.094360 437.202332  L 692.911011 437.018951  L 692.911011 436.468994  L 693.094360 435.185638  L 693.644409 409.152222  L 695.294373 400.168793  L 697.127686 397.235443  L 699.694336 395.585449  L 702.627747 395.035461  L 705.377747 395.035461  L 707.944458 395.952118  L 710.327820 397.602112  L 712.711182 404.018799  L 711.611145 406.402161  L 709.961121 408.235504  L 708.127808 409.518799  L 706.294434 410.435516  L 705.194458 410.802277  L 705.377747 410.435516  L 706.111145 409.518799  L 707.394409 408.785614  L 709.411133 407.318817 "  stroke="rgb(25,25,25)" stroke-width="4" fill="none" />  
  <path  d="M 719.677795 406.585480  L 720.044495 407.502197  L 720.044495 408.602173  L 719.861206 409.702179  L 719.127869 410.802277  L 718.577820 411.718872  L 718.211182 412.085541  L 718.027771 412.268890  L 718.394470 412.268890  L 718.761169 411.902252  L 718.944519 411.535492  L 719.127869 410.985535  L 719.311218 410.618866  L 719.311218 409.518799  L 719.494507 408.968842  L 719.494507 408.235504  L 719.861206 407.868866  L 720.044495 407.318817  L 720.594543 406.585480  L 723.161194 404.752167  L 725.361206 403.468842  L 728.477966 402.002136  L 731.961243 400.718781  L 735.444580 399.802124 "  stroke="rgb(25,25,25)" stroke-width="4" fill="none" />  
  <path  d="M 749.011353 401.818817  L 747.728027 402.002136  L 746.261353 402.002136  L 744.611328 402.002136  L 740.578003 402.735474  L 738.927979 403.468842  L 737.461304 404.568848  L 736.911255 405.118835  L 736.911255 405.485504  L 737.277954 406.035461  L 738.194641 406.952148  L 739.661255 408.052155  L 751.211304 413.735565  L 752.678040 415.385590  L 752.861328 416.668915  L 752.127991 417.952332  L 750.477966 418.868896  L 744.427979 420.335541  L 741.311279 420.335541  L 738.194641 419.968994  L 735.627930 419.052277  L 733.794556 417.952332  L 733.427917 417.035583  L 733.611206 415.385590 "  stroke="rgb(25,25,25)" stroke-width="4" fill="none" />  
  <path  d="M 777.978149 379.451996  L 779.261475 379.268677  L 781.461487 379.268677  L 784.944885 379.451996  L 788.244873 379.635376  L 796.861633 380.368652  L 805.294983 380.002045  L 808.594971 379.818665  L 810.611694 379.635376  L 811.161682 379.451996  L 809.145020 377.435303 "  stroke="rgb(25,25,25)" stroke-width="4" fill="none" />  
  <path  d="M 778.528198 387.152100  L 778.161499 389.352051  L 778.161499 392.468781  L 776.694763 404.752167  L 776.511475 408.052155  L 775.594849 415.935638  L 775.594849 418.135559  L 775.778137 419.602234  L 776.328125 420.885590  L 777.794861 422.535614  L 778.344788 422.718903  L 778.894836 422.718903  L 779.628174 422.535614  L 781.461487 421.802277  L 786.411560 420.885590  L 792.094910 419.052277  L 795.761536 417.402222  L 797.961609 415.935638  L 799.428284 413.918945  L 798.878296 410.435516 "  stroke="rgb(25,25,25)" stroke-width="4" fill="none" />  
  <path  d="M 340.542450 656.103516  L 340.909119 655.920166  L 341.459106 655.553528  L 341.642426 655.370239  L 342.009125 655.553528  L 341.825775 655.553528  L 341.825775 655.736877  L 341.459106 656.103516  L 339.809143 657.020264  L 337.792450 658.486877  L 335.409088 661.786926  L 335.225769 662.336853  L 334.859100 664.720215  L 335.225769 665.636902  L 335.775757 666.553650  L 336.509094 667.286926  L 337.609100 667.836975  L 339.809143 668.203674  L 343.109131 667.653625  L 346.959167 665.270264  L 349.709167 661.053528 "  stroke="rgb(25,25,25)" stroke-width="4" fill="none" />  
  <path  d="M 412.226196 661.970276  L 413.326141 661.786926  L 414.426208 661.603577  L 415.159515 661.603577  L 415.892853 661.420227  L 416.259521 661.420227  L 416.442841 661.236938  L 416.259521 660.870239  L 415.892853 660.686829  L 415.159515 660.503601  L 413.509491 660.870239  L 410.942841 662.520264  L 410.026154 663.253601  L 408.926147 664.353577  L 407.826141 665.820312  L 407.276123 667.286926  L 407.276123 668.020264  L 407.459473 668.753601  L 407.826141 669.486938  L 408.559479 669.853577  L 410.026154 670.403625  L 412.409515 670.586914  L 415.892853 669.853577  L 418.642883 667.470276 "  stroke="rgb(25,25,25)" stroke-width="4" fill="none" />  
  <path  d="M 470.526489 657.386902  L 470.343140 657.753540  L 470.343140 658.120239  L 469.976471 658.486877  L 469.609863 658.853577  L 469.243164 659.403503  L 468.693115 659.586914  L 467.959839 660.136902  L 467.593170 660.686829  L 467.409821 661.053528  L 467.409821 661.603577  L 467.226440 661.970276  L 467.409821 662.336853  L 467.409821 662.520264  L 467.776489 663.620300  L 468.143158 663.986877  L 468.326447 664.353577  L 468.876465 664.720215  L 470.343140 665.086914  L 473.276520 665.086914  L 477.309875 663.803589  L 480.426544 659.770203 "  stroke="rgb(25,25,25)" stroke-width="4" fill="none" />  
  <path  d="M 781.644836 388.802094  L 782.561462 388.985382  L 783.661560 389.535370  L 784.944885 390.452087  L 786.044861 391.368744  L 787.511536 392.652100  L 789.711609 395.768738  L 791.728210 399.068756  L 792.461548 399.985504  L 792.828247 400.718781  L 793.561584 401.635498  L 795.394897 403.652130  L 796.494934 404.568848  L 798.144958 405.485504  L 798.878296 406.035461  L 799.978271 406.218872  L 800.711609 406.218872 "  stroke="rgb(25,25,25)" stroke-width="4" fill="none" />  
  <path  d="M 806.761658 398.885468  L 806.395020 398.335480  L 806.211609 398.152100  L 806.028320 398.518768  L 804.194946 399.802124  L 802.728333 401.085449  L 797.594910 404.752167  L 792.828247 407.135529  L 791.178223 408.052155  L 789.528198 409.518799  L 788.244873 410.802277  L 788.244873 411.718872  L 788.794861 412.268890  L 788.978271 411.902252 "  stroke="rgb(25,25,25)" stroke-width="4" fill="none" />  
  <path  d="M 819.961731 408.602173  L 819.778381 408.602173  L 819.595032 408.968842  L 819.778381 409.702179  L 820.878418 412.268890  L 821.428406 415.385590  L 821.428406 416.852203  L 820.878418 418.135559  L 819.961731 419.418915  L 813.728333 424.552307  L 811.344971 426.202301  L 810.244995 427.852234  L 808.778320 427.668945 "  stroke="rgb(25,25,25)" stroke-width="4" fill="none" />  
  <path  d="M 829.311829 392.285431  L 829.861755 392.102112  L 830.595154 392.102112  L 831.145081 392.835419  L 832.245178 393.935425  L 836.095154 397.602112  L 838.661804 399.252136  L 841.778442 400.718781  L 843.245239 401.085449  L 844.895203 401.268829  L 846.361816 401.085449  L 847.461853 400.535461 "  stroke="rgb(25,25,25)" stroke-width="4" fill="none" />  
  <path  d="M 854.611877 395.952118  L 854.245239 397.235443  L 853.878540 398.518768  L 853.511902 400.168793  L 852.411865 405.668793  L 850.945190 408.602173  L 850.028503 409.885559  L 848.378479 411.352203  L 844.528564 415.385590  L 843.428467 417.035583  L 843.061890 418.685516  L 842.511780 420.885590  L 842.145081 422.718903  L 842.145081 423.818939 "  stroke="rgb(25,25,25)" stroke-width="4" fill="none" />  
  <path  d="M 875.512024 403.468842  L 876.612061 403.102142  L 877.712036 402.918854  L 878.078735 403.285461  L 878.628723 404.018799  L 878.811951 404.935455  L 878.445312 408.235504  L 878.078735 409.885559  L 877.528748 411.352203  L 876.428711 413.185516  L 875.695374 414.835510  L 874.412048 416.852203  L 872.578674 420.702209  L 872.028687 422.168945  L 871.661987 423.452271  L 871.661987 423.818939 "  stroke="rgb(25,25,25)" stroke-width="4" fill="none" />  
  <path  d="M 886.328735 395.768738  L 887.062073 395.218781  L 887.428711 393.935425  L 888.162048 393.935425  L 890.545410 393.568756  L 897.328857 394.302124  L 902.278870 395.585449  L 905.395508 397.052155  L 905.578857 397.785431  L 905.578857 398.518768  L 905.028809 399.618805  L 896.778748 404.935455  L 895.495361 406.035461  L 895.128845 406.768921  L 894.762146 407.318817  L 894.762146 407.868866  L 895.128845 408.968842  L 895.495361 409.335510  L 896.045471 409.702179  L 898.428772 410.252197  L 900.812134 410.252197  L 904.295593 409.885559  L 908.145508 408.968842  L 911.995544 407.868866  L 914.745605 406.768921  L 916.395630 405.302124 "  stroke="rgb(25,25,25)" stroke-width="4" fill="none" />  
  <path  d="M 909.978882 381.468689  L 909.612183 381.652069  L 909.795532 381.652069  L 910.162231 381.835358  L 910.345520 382.018677  L 910.895569 382.018677  L 911.445557 382.202026  L 912.545593 382.385345  L 918.412231 382.752014  L 921.895569 383.302063  L 924.462280 383.852051  L 925.928955 384.402039  L 926.478943 384.768707  L 926.845642 384.952026  L 927.028992 385.318695  L 927.028992 386.602020  L 927.395630 388.435394  L 927.578979 395.218781  L 927.578979 396.685486  L 928.312317 399.068756  L 928.862305 403.285461  L 930.879028 412.452148  L 931.062317 413.552185  L 930.879028 414.285553  L 930.879028 414.652222  L 930.512329 415.385590  L 930.145691 415.752197  L 928.495667 416.302246  L 927.578979 416.118866  L 915.845520 416.852203  L 910.712219 416.852203  L 905.212158 413.552185 "  stroke="rgb(25,25,25)" stroke-width="4" fill="none" />  
  <path  d="M 808.778320 387.885437  L 809.511658 387.702057  L 809.878357 387.518768  L 810.061646 387.518768  L 810.244995 387.518768  L 810.244995 387.702057  L 810.428345 387.885437  L 810.428345 388.068726  L 810.428345 388.252045  L 810.244995 388.618713  L 809.878357 389.352051  L 808.778320 391.002075  L 808.594971 391.735443  L 808.594971 392.285431  L 808.778320 392.835419  L 809.511658 393.568756  L 810.428345 393.935425  L 813.361633 393.935425  L 816.661682 393.202087  L 817.578369 392.652100  L 817.761719 392.285431  L 817.578369 391.552063  L 816.295044 389.535370  L 815.378357 388.618713  L 814.094971 387.885437  L 812.811646 387.335358  L 811.344971 387.335358  L 810.978333 387.518768  L 811.161682 388.068726  L 811.711609 388.618713 "  stroke="rgb(25,25,25)" stroke-width="4" fill="none" />  
  <path  d="M 859.561951 385.685364  L 859.745300 385.685364  L 859.561951 385.868744  L 859.378601 386.235443  L 859.011963 386.602020  L 858.645264 387.335358  L 858.095276 388.252045  L 857.545288 389.535370  L 857.361938 390.818787  L 858.278625 392.468781  L 859.011963 393.385437  L 859.928650 394.118744  L 861.211975 394.852081  L 863.411926 395.402161  L 863.962036 395.402161  L 864.145264 395.218781  L 864.511902 395.035461  L 864.878662 394.668793  L 865.245361 393.752136  L 865.428589 392.652100  L 865.061951 391.552063  L 863.962036 389.352051  L 863.228638 388.618713  L 862.495239 388.252045  L 862.128540 387.702057  L 861.761902 387.702057  L 861.211975 387.518768  L 861.028625 387.702057  L 860.478516 387.335358 "  stroke="rgb(25,25,25)" stroke-width="4" fill="none" />  
  <path  d="M 913.645569 388.068726  L 913.095581 388.252045  L 912.362244 388.435394  L 911.445557 388.802094  L 910.528870 389.535370  L 909.795532 390.085419  L 909.062195 390.818787  L 908.695557 391.368744  L 908.512207 391.918732  L 908.695557 392.285431  L 908.695557 392.468781  L 909.062195 392.835419  L 910.345520 393.202087  L 911.262207 393.385437  L 915.112183 393.385437  L 916.578979 393.202087  L 917.862183 392.652100  L 918.228943 392.285431  L 918.595642 391.735443  L 918.595642 391.368744  L 918.412231 391.185394  L 916.945618 390.268738  L 915.845520 389.902039  L 914.195618 389.168762  L 911.628906 388.802094  L 908.145508 386.968689 "  stroke="rgb(25,25,25)" stroke-width="4" fill="none" />  
  <path  d="M 502.426666 720.637207  L 502.243347 720.453857  L 502.243347 721.003906  L 502.426666 721.553955  L 503.160004 722.470581  L 503.893311 723.020569  L 505.176697 724.120605  L 516.359985 729.987244  L 543.860168 740.070679  L 583.460510 760.237427  L 591.893799 765.554138  L 597.943848 769.220825  L 601.060547 771.237488  L 601.793884 771.970886  L 602.160522 772.154175  L 601.793884 771.787476  L 601.793884 771.604187  L 601.243896 771.420776  L 601.060547 771.054138  L 600.693848 770.504150  L 599.410522 767.570801 "  stroke="rgb(25,25,25)" stroke-width="4" fill="none" />  
  <path  d="M 774.128174 473.135864  L 775.778137 472.035889  L 776.878174 471.119171  L 777.611450 470.752502  L 777.978149 471.119171  L 777.978149 471.302551  L 777.794861 471.669220  L 777.611450 472.402527  L 776.511475 474.969299  L 776.144836 477.352509  L 771.011475 495.135986  L 768.811401 514.202759  L 761.478088 566.269714  L 745.894592 614.486633  L 727.561157 714.220520  L 722.611145 749.054077  L 721.511230 758.037415  L 721.511230 759.137451  L 721.327820 759.320740  L 721.327820 759.137451  L 721.144531 758.770752  L 721.144531 758.220825  L 720.777832 757.487427  L 720.044495 756.387390  L 718.211182 754.187439  L 716.194458 751.620728  L 713.261108 747.770691 "  stroke="rgb(25,25,25)" stroke-width="4" fill="none" />  
  <path  d="M 645.977478 732.553955  L 646.527466 731.820618  L 646.894104 731.453918  L 647.444153 731.270630  L 647.810791 731.453918  L 647.810791 732.004028  L 647.260803 734.570618  L 642.677429 744.287292  L 633.510742 757.304077  L 621.960693 770.687439  L 604.360596 789.387573  L 603.810547 790.120911  L 603.077209 790.854309  L 602.527161 791.587646  L 602.343872 791.770935  L 602.527161 791.587646  L 602.710571 791.587646  L 602.893860 791.404236  L 602.893860 791.220947  L 603.077209 791.220947  L 603.077209 791.037598  L 603.260559 791.037598  L 603.443848 791.037598  L 603.627258 791.037598  L 603.443848 790.854309  L 603.443848 790.670898  L 603.627258 790.670898  L 603.443848 790.670898  L 603.627258 790.670898  L 603.810547 790.670898  L 603.993896 790.670898  L 604.727234 791.404236  L 611.693909 797.454346  L 619.393982 804.971008  L 623.610657 807.721008  L 632.410706 815.054382  L 655.877441 837.787964  L 660.644226 842.004578  L 661.010864 842.004578  L 660.460815 841.454529  L 659.910828 841.087891  L 658.810791 839.987854  L 656.610840 837.421143  L 652.760803 831.554565 "  stroke="rgb(25,25,25)" stroke-width="4" fill="none" />  
  <path  d="M 655.877441 737.320618  L 655.327515 735.854004  L 654.777466 734.937317  L 654.777466 735.120605  L 655.144226 735.487305  L 656.244202 736.220642  L 660.644226 739.520691  L 678.060974 751.804077  L 714.727844 782.054260  L 722.977844 790.120911  L 723.711182 791.037598  L 724.444519 791.770935  L 724.444519 791.954285  L 724.627869 792.137573  L 724.444519 791.954285  L 724.261169 791.954285  L 718.944519 797.637634  L 687.227722 822.571106  L 679.160950 829.354431  L 669.994202 834.671143  L 657.710876 833.204529 "  stroke="rgb(25,25,25)" stroke-width="4" fill="none" />  
  <path  d="M 639.560730 855.387939  L 639.744080 857.404602  L 640.110718 858.321289  L 640.844055 859.787964  L 641.394104 861.804688  L 641.394104 863.821350  L 641.944092 866.204712  L 642.310791 869.321350  L 643.227417 872.988037  L 644.510742 888.204834  L 644.510742 896.088196  L 644.510742 897.921509  L 643.594055 899.021423  L 642.494080 899.204895  L 640.844055 897.738220 "  stroke="rgb(25,25,25)" stroke-width="4" fill="none" />  
  <path  d="M 628.194031 887.471497  L 629.110718 888.571411  L 630.210693 890.221436  L 632.410706 893.338135  L 634.427368 896.271484  L 635.710693 897.554871  L 638.277405 899.571533  L 639.377441 899.938232  L 642.310791 900.304871  L 644.877441 899.754883  L 648.360779 898.288208  L 652.210815 895.721497  L 662.660889 885.821472  L 668.160889 880.138123  L 669.994202 873.538025 "  stroke="rgb(25,25,25)" stroke-width="4" fill="none" />  
  <path  d="M 452.926392 944.488525  L 450.543030 945.221741  L 447.976379 946.871765  L 444.676331 949.621826  L 441.743042 953.105164  L 437.892975 961.355164  L 436.609650 965.571899  L 436.059631 969.238586  L 436.426300 972.171936  L 437.526306 975.105286  L 438.993011 977.122009  L 440.459686 978.405273  L 441.743042 978.588562  L 442.842987 978.221985  L 444.309662 976.755310  L 446.509705 974.555298  L 448.159729 971.805298  L 448.893066 969.055237 "  stroke="rgb(25,25,25)" stroke-width="4" fill="none" />  
  <path  d="M 456.226410 927.805115  L 455.676422 928.354980  L 455.126404 930.188354  L 454.759735 932.755066  L 454.943085 936.788452  L 457.326447 951.088501  L 458.426453 959.338501  L 459.159729 965.571899  L 459.526398 967.221863  L 459.709747 968.871887  L 460.076447 969.971924  L 460.443146 970.521912  L 460.809753 970.521912  L 461.543091 969.788574  L 461.726440 967.588562 "  stroke="rgb(25,25,25)" stroke-width="4" fill="none" />  
  <path  d="M 466.309814 964.655212  L 465.943146 965.755188  L 466.126465 966.671875  L 466.309814 967.588562  L 466.309814 968.321899  L 466.493134 968.688599  L 466.676422 969.055237  L 467.776489 969.055237  L 468.876465 968.688599  L 470.893158 967.588562  L 472.909851 965.755188  L 474.193176 963.188538  L 474.743195 957.321777  L 474.193176 954.205200  L 473.093170 951.271790  L 471.076477 948.888428  L 468.876465 947.788452  L 467.409821 946.871765  L 466.493134 946.321777  L 466.309814 946.321777  L 467.043091 947.055115  L 468.326447 948.155090  L 470.159821 948.705139 "  stroke="rgb(25,25,25)" stroke-width="4" fill="none" />  
  <path  d="M 492.343292 954.571838  L 490.326599 954.755188  L 489.409912 955.121887  L 488.676575 955.671753  L 488.493225 956.221863  L 488.676575 956.771851  L 488.676575 957.688477  L 489.226593 958.971802  L 495.093323 968.871887  L 496.193268 970.888611  L 496.743286 972.905273  L 496.193268 975.838623  L 495.643311 976.755310  L 494.543243 977.122009  L 492.893280 977.305237  L 490.693268 977.305237  L 489.226593 976.572021  L 487.576569 975.471985  L 486.109924 973.455261  L 485.193207 970.888611  L 484.643250 967.221863 "  stroke="rgb(25,25,25)" stroke-width="4" fill="none" />  
  <path  d="M 508.843262 923.404968  L 509.393372 925.971619  L 510.126770 929.638367  L 511.226715 936.971741  L 510.859955 944.855103  L 510.676727 951.638489  L 510.676727 958.238586  L 510.126770 960.988464  L 509.393372 963.005188  L 508.660034 964.288513  L 508.110077 964.288513 "  stroke="rgb(25,25,25)" stroke-width="4" fill="none" />  
  <path  d="M 513.426697 953.655151  L 514.710083 952.738525  L 516.176697 951.638489  L 524.060059 947.421753  L 527.910156 945.221741  L 531.576843 942.655029 "  stroke="rgb(25,25,25)" stroke-width="4" fill="none" />  
  <path  d="M 553.943665 926.338318  L 553.393677 926.155090  L 552.293701 926.338318  L 551.743591 926.338318  L 551.010315 926.888306  L 550.093567 927.621643  L 546.976929 931.655029  L 543.860168 939.355042  L 542.760254 947.788452  L 542.760254 952.188477  L 544.043518 961.721802  L 546.793640 969.421936  L 548.626953 973.455261  L 551.560181 976.938538  L 555.410339 979.505371  L 559.443726 981.155396  L 562.010315 980.788696 "  stroke="rgb(25,25,25)" stroke-width="4" fill="none" />  
  <path  d="M 576.127075 947.421753  L 576.493774 946.871765  L 577.043701 946.505127  L 577.227112 945.771729  L 577.410400 945.221741  L 577.593689 944.855103  L 577.227112 944.671753  L 576.860413 944.488525  L 575.760437 944.488525  L 575.027039 944.671753  L 572.643799 946.505127  L 567.510315 952.738525  L 566.776978 954.571838  L 566.593750 956.038452  L 566.593750 957.505188  L 566.776978 958.788574  L 568.243652 961.171936  L 569.893677 962.271851  L 571.910339 963.005188  L 575.210388 963.005188  L 579.610413 961.905151  L 583.643799 960.805237  L 585.843750 959.338501 "  stroke="rgb(25,25,25)" stroke-width="4" fill="none" />  
  <path  d="M 606.377258 959.155212  L 606.193848 960.071838  L 606.010559 961.538574  L 605.643921 962.821960  L 602.710571 967.405212  L 598.860474 971.621948  L 596.843872 973.455261  L 595.010498 974.738647  L 592.443848 973.638611 "  stroke="rgb(25,25,25)" stroke-width="4" fill="none" />  
  <path  d="M 632.777405 946.688416  L 632.410706 947.055115  L 631.860718 947.788452  L 631.127380 948.705139  L 630.577393 949.438477  L 629.477356 950.538452  L 628.377319 952.005127  L 627.277344 954.021729  L 626.727356 956.038452  L 626.727356 959.888550  L 627.644043 963.371826  L 630.027344 965.571899  L 631.677368 965.938538  L 633.510742 965.938538  L 634.794067 965.571899  L 638.460754 963.371826  L 641.027466 960.805237  L 641.760742 959.155212  L 642.310791 957.321777  L 642.310791 955.305176  L 641.944092 953.655151  L 641.027466 952.188477  L 639.377441 950.721802  L 637.727417 949.621826  L 635.527344 949.071777  L 633.694031 948.888428  L 631.860718 949.255127  L 629.844055 948.521790 "  stroke="rgb(25,25,25)" stroke-width="4" fill="none" />  
  <path  d="M 651.110840 927.438293  L 652.027466 928.905029  L 654.044128 931.105042  L 656.244202 934.038391  L 661.927490 942.655029  L 664.494202 949.805115  L 664.860901 953.288513  L 664.494202 956.771851  L 663.027466 960.805237  L 660.094177 966.305237  L 654.960815 972.721924  L 647.444153 980.238586  L 637.910767 985.921997 "  stroke="rgb(25,25,25)" stroke-width="4" fill="none" />  
  <path  d="M 719.127869 935.871765  L 720.044495 935.321716  L 720.961182 935.321716  L 721.694458 935.505066  L 722.244568 935.871765  L 722.244568 937.338318  L 721.327820 939.355042  L 716.377869 943.388428  L 697.127686 956.221863  L 693.094360 957.871887  L 690.710999 958.788574  L 688.144348 960.438599  L 688.327637 960.438599  L 688.511047 960.805237  L 688.877686 961.355164  L 690.344360 963.005188  L 691.077698 963.921875  L 693.827698 966.855225  L 695.477661 968.321899  L 697.127686 970.155273  L 698.961121 971.805298  L 704.094421 975.288635  L 707.027771 976.938538  L 708.494507 977.671936  L 712.161072 978.405273  L 714.544434 977.855347  L 713.261108 973.821960 "  stroke="rgb(25,25,25)" stroke-width="4" fill="none" />  
  <path  d="M 756.161377 945.955078  L 755.978027 945.955078  L 755.794739 945.955078  L 755.611389 945.771729  L 755.428040 945.955078  L 755.061340 945.588440  L 754.694641 945.588440  L 754.328064 945.588440  L 754.144714 945.771729  L 754.144714 945.588440  L 754.328064 945.771729  L 754.511353 945.771729  L 755.061340 945.771729  L 755.611389 945.405090  L 756.528076 945.405090  L 757.628052 944.671753  L 759.094727 943.938416  L 761.111389 943.205139  L 765.694763 939.538452  L 771.561462 934.405090  L 781.461487 922.855042  L 782.744873 919.921692  L 782.561462 919.004883  L 782.378174 919.004883  L 782.194824 919.371582  L 782.194824 921.205017  L 781.828247 923.038269  L 781.461487 931.288391  L 778.161499 943.388428  L 777.244873 946.138550  L 776.694763 948.705139  L 775.044800 954.021729  L 773.944824 956.955200  L 772.111450 959.705139  L 769.728149 962.455261  L 767.161377 965.205200  L 764.411438 967.038574  L 762.211426 968.321899 "  stroke="rgb(25,25,25)" stroke-width="4" fill="none" />  
  <path  d="M 750.477966 971.621948  L 750.477966 971.255249  L 750.844666 971.071960  L 751.394714 970.705261  L 751.944641 970.521912  L 754.511353 970.155273  L 755.978027 969.605225  L 757.078003 969.421936  L 773.578125 964.471985  L 779.078125 963.371826  L 788.978271 960.805237 "  stroke="rgb(25,25,25)" stroke-width="4" fill="none" />  
  <path  d="M 464.476471 958.605103  L 464.843140 958.971802  L 465.026459 959.338501  L 465.209747 959.521912  L 465.209747 959.888550  L 465.209747 960.438599  L 465.209747 960.988464  L 465.393127 961.538574  L 465.759796 962.271851  L 466.126465 963.371826  L 466.493134 964.105164  L 466.676422 965.021851  L 467.043091 965.755188  L 467.593170 965.755188 "  stroke="rgb(25,25,25)" stroke-width="4" fill="none" />  
  <path  d="M 638.644104 985.188660  L 639.010742 985.921997  L 639.560730 987.205322  L 640.294067 988.671997  L 641.760742 991.605408  L 642.494080 993.255432  L 643.777405 998.388672  L 644.144104 1000.588745  L 644.877441 1002.972107  L 645.794128 1008.105469  L 645.977478 1010.488831  L 646.527466 1013.055420  L 646.710754 1018.005493  L 646.894104 1020.388855  L 646.710754 1024.238892  L 645.977478 1026.072266  L 645.244080 1027.355469  L 643.594055 1026.988892 "  stroke="rgb(25,25,25)" stroke-width="4" fill="none" />  
  <path  d="M 631.494080 1020.388855  L 631.860718 1021.122192  L 632.593994 1021.855530  L 633.327332 1023.138855  L 635.527344 1025.155518  L 636.627380 1026.438843  L 638.094055 1027.538940  L 639.194031 1028.638916  L 640.294067 1029.372192  L 641.394104 1029.922241  L 642.310791 1030.105591  L 644.694031 1030.105591  L 648.360779 1029.372192  L 651.110840 1027.722168  L 661.194153 1018.555481  L 664.677490 1014.705444  L 666.327515 1009.572144 "  stroke="rgb(25,25,25)" stroke-width="4" fill="none" />  
  <path  d="M 548.443542 1084.555908  L 545.326904 1086.389160  L 542.026855 1088.405884  L 537.626892 1093.172729  L 536.343445 1095.189453  L 535.793518 1097.389404  L 535.976868 1099.589355  L 537.993469 1102.889282  L 540.010193 1103.622681  L 542.393494 1103.622681  L 544.593567 1103.255859  L 546.610229 1102.339355  L 547.710266 1101.239258  L 549.360291 1098.305908  L 549.910217 1096.839233  L 550.093567 1094.822632  L 549.910217 1092.989258  L 548.810242 1089.505981  L 548.626953 1088.405884  L 548.260315 1088.405884  L 548.076904 1088.772461  L 548.076904 1090.422485  L 548.626953 1093.722534  L 550.276978 1097.389404  L 551.376953 1099.039307  L 553.393677 1100.505981  L 556.326904 1101.605957  L 559.810364 1101.789307  L 562.927002 1101.056030  L 565.310364 1099.406006 "  stroke="rgb(25,25,25)" stroke-width="4" fill="none" />  
  <path  d="M 578.327026 1088.772461  L 577.593689 1088.039185  L 576.127075 1087.672485  L 574.293762 1087.672485  L 572.277100 1088.222656  L 568.427002 1089.872681  L 566.776978 1091.522583  L 565.860291 1093.172729  L 565.493652 1094.639160  L 565.493652 1096.105957  L 566.226990 1098.122681  L 567.510315 1100.139282  L 569.160339 1101.789307  L 570.993713 1103.255859  L 572.643799 1104.172729  L 577.960388 1103.622681  L 583.643799 1100.689209  L 586.027161 1098.672485  L 588.043823 1096.105957  L 590.060486 1092.805908  L 591.710449 1089.139282 "  stroke="rgb(25,25,25)" stroke-width="4" fill="none" />  
  <path  d="M 596.110535 1058.705688  L 595.560547 1058.522339  L 595.193848 1058.889038  L 595.010498 1059.805786  L 593.910522 1064.572510  L 592.993774 1076.855835  L 592.810486 1081.622559  L 593.910522 1089.872681  L 596.843872 1099.772583  L 596.843872 1101.422729  L 596.477173 1102.522583  L 595.560547 1102.156006 "  stroke="rgb(25,25,25)" stroke-width="4" fill="none" />  
  <path  d="M 593.360474 1082.355835  L 593.177185 1081.255859  L 593.727112 1080.155884  L 594.277100 1079.605835  L 596.293823 1078.505859  L 600.877136 1077.589111  L 604.727234 1077.222534  L 607.843872 1077.222534  L 610.410583 1077.222534 "  stroke="rgb(25,25,25)" stroke-width="4" fill="none" />  
  <path  d="M 619.393982 1086.022461  L 618.293945 1087.122559  L 617.560608 1088.039185  L 616.460632 1090.422485  L 615.360596 1093.172729  L 614.810608 1096.839233  L 614.627258 1100.139282  L 614.993896 1101.605957  L 615.544006 1102.705933  L 616.277283 1103.622681  L 617.010620 1104.172729  L 618.110596 1103.989258  L 619.760620 1102.889282 "  stroke="rgb(25,25,25)" stroke-width="4" fill="none" />  
  <path  d="M 626.177307 1079.605835  L 623.977356 1076.855835  L 621.960693 1074.289185  L 620.860596 1072.272461  L 619.943970 1070.439087  L 619.760620 1069.705688  L 619.760620 1069.339111  L 619.943970 1069.339111  L 620.677307 1069.889160  L 622.694031 1070.622437  L 625.260681 1070.805908 "  stroke="rgb(25,25,25)" stroke-width="4" fill="none" />  
  <path  d="M 639.010742 1082.539185  L 638.644104 1083.272583  L 638.277405 1084.189209  L 637.727417 1084.922607  L 637.177368 1085.472534  L 636.260742 1085.839233  L 635.160767 1086.389160  L 633.694031 1086.939209  L 632.960693 1087.489258  L 632.593994 1088.039185  L 632.227417 1089.139282  L 632.044006 1090.605835  L 631.494080 1093.355957  L 632.044006 1095.005859  L 632.960693 1096.839233  L 634.244019 1097.755981  L 634.794067 1097.755981  L 635.344055 1097.389404  L 635.527344 1097.206177  L 636.444031 1096.839233  L 639.010742 1094.822632  L 641.944092 1088.589233  L 642.494080 1086.205933  L 642.677429 1084.555908  L 642.677429 1083.272583  L 643.044128 1081.622559  L 644.144104 1081.622559  L 645.060791 1081.989258  L 648.360779 1084.739136  L 650.010742 1086.939209  L 651.294128 1089.505981  L 652.210815 1094.639160  L 652.210815 1097.939209  L 651.844177 1100.139282  L 651.294128 1101.789307  L 651.110840 1102.705933  L 650.927429 1103.072632  L 650.927429 1102.889282  L 651.294128 1102.705933  L 651.477478 1101.605957  L 652.577454 1099.955933  L 653.494202 1097.572632  L 654.044128 1095.372681  L 655.510803 1092.622559  L 657.344177 1090.422485  L 658.994202 1088.955811  L 660.277527 1088.405884  L 661.377563 1088.589233  L 661.560852 1088.589233  L 662.110840 1088.955811  L 663.760864 1090.605835  L 667.610840 1097.206177  L 669.810913 1100.139282  L 671.094238 1100.689209 "  stroke="rgb(25,25,25)" stroke-width="4" fill="none" />
</svg>